<svg width="49" height="49" viewBox="0 0 49 49" fill="none" xmlns="http://www.w3.org/2000/svg">
<g clip-path="url(#clip0_27_676)">
<path d="M24.2432 4.94226H17.2432C15.3866 4.94226 13.6062 5.67976 12.2934 6.99251C10.9807 8.30527 10.2432 10.0857 10.2432 11.9423C10.2432 13.7988 10.9807 15.5793 12.2934 16.892C13.6062 18.2048 15.3866 18.9423 17.2432 18.9423M24.2432 4.94226V18.9423M24.2432 4.94226H31.2432C32.1624 4.94226 33.0727 5.12332 33.9219 5.4751C34.7712 5.82689 35.5429 6.3425 36.1929 6.99251C36.8429 7.64252 37.3585 8.4142 37.7103 9.26348C38.0621 10.1128 38.2432 11.023 38.2432 11.9423C38.2432 12.8615 38.0621 13.7718 37.7103 14.621C37.3585 15.4703 36.8429 16.242 36.1929 16.892C35.5429 17.542 34.7712 18.0576 33.9219 18.4094C33.0727 18.7612 32.1624 18.9423 31.2432 18.9423M24.2432 18.9423H17.2432M24.2432 18.9423H31.2432M24.2432 18.9423V32.9423M17.2432 18.9423C15.3866 18.9423 13.6062 19.6798 12.2934 20.9925C10.9807 22.3053 10.2432 24.0857 10.2432 25.9423C10.2432 27.7988 10.9807 29.5793 12.2934 30.892C13.6062 32.2048 15.3866 32.9423 17.2432 32.9423M31.2432 18.9423C30.3239 18.9423 29.4137 19.1233 28.5644 19.4751C27.7151 19.8269 26.9434 20.3425 26.2934 20.9925C25.6434 21.6425 25.1278 22.4142 24.776 23.2635C24.4242 24.1128 24.2432 25.023 24.2432 25.9423C24.2432 26.8615 24.4242 27.7718 24.776 28.621C25.1278 29.4703 25.6434 30.242 26.2934 30.892C26.9434 31.542 27.7151 32.0576 28.5644 32.4094C29.4137 32.7612 30.3239 32.9423 31.2432 32.9423C32.1624 32.9423 33.0727 32.7612 33.9219 32.4094C34.7712 32.0576 35.5429 31.542 36.1929 30.892C36.8429 30.242 37.3585 29.4703 37.7103 28.621C38.0621 27.7718 38.2432 26.8615 38.2432 25.9423C38.2432 25.023 38.0621 24.1128 37.7103 23.2635C37.3585 22.4142 36.8429 21.6425 36.1929 20.9925C35.5429 20.3425 34.7712 19.8269 33.9219 19.4751C33.0727 19.1233 32.1624 18.9423 31.2432 18.9423ZM17.2432 32.9423C15.3866 32.9423 13.6062 33.6798 12.2934 34.9925C10.9807 36.3053 10.2432 38.0857 10.2432 39.9423C10.2432 41.7988 10.9807 43.5793 12.2934 44.892C13.6062 46.2048 15.3866 46.9423 17.2432 46.9423C19.0997 46.9423 20.8802 46.2048 22.1929 44.892C23.5057 43.5793 24.2432 41.7988 24.2432 39.9423V32.9423M17.2432 32.9423H24.2432" stroke="#1E1E1E" stroke-width="4" stroke-linecap="round" stroke-linejoin="round"/>
</g>
<defs>
<clipPath id="clip0_27_676">
<rect width="48" height="48" fill="white" transform="translate(0.243164 0.942261)"/>
</clipPath>
</defs>
</svg>
