<svg width="49" height="49" viewBox="0 0 49 49" fill="none" xmlns="http://www.w3.org/2000/svg">
<g clip-path="url(#clip0_27_562)">
<path d="M18.3491 38.7349C8.34912 41.7349 8.34912 33.7349 4.34912 32.7349M32.3491 44.7349V36.9949C32.4241 36.0412 32.2953 35.0825 31.9712 34.1824C31.647 33.2824 31.135 32.4617 30.4691 31.7749C36.7491 31.0749 43.3491 28.6949 43.3491 17.7749C43.3486 14.9825 42.2745 12.2973 40.3491 10.2749C41.2608 7.83187 41.1964 5.13156 40.1691 2.73486C40.1691 2.73486 37.8091 2.03486 32.3491 5.69486C27.7651 4.4525 22.9331 4.4525 18.3491 5.69486C12.8891 2.03486 10.5291 2.73486 10.5291 2.73486C9.50187 5.13156 9.43741 7.83187 10.3491 10.2749C8.40938 12.3123 7.33417 15.0218 7.34912 17.8349C7.34912 28.6749 13.9491 31.0549 20.2291 31.8349C19.5711 32.5148 19.0636 33.3257 18.7397 34.2147C18.4158 35.1037 18.2827 36.051 18.3491 36.9949V44.7349" stroke="#1E1E1E" stroke-width="4" stroke-linecap="round" stroke-linejoin="round"/>
</g>
<defs>
<clipPath id="clip0_27_562">
<rect width="48" height="48" fill="white" transform="translate(0.349121 0.734863)"/>
</clipPath>
</defs>
</svg>
