<svg width="64" height="26" viewBox="0 0 64 26" fill="none" xmlns="http://www.w3.org/2000/svg">
<rect width="64" height="26" fill="white"/>
<path d="M11.3582 23.8569C9.91575 23.8569 8.55575 23.5993 7.27817 23.0842C6.0212 22.569 4.90848 21.8272 3.93999 20.8587C2.99211 19.8696 2.23999 18.7054 1.68363 17.366C1.14787 16.006 0.879992 14.4914 0.879992 12.8223C0.879992 11.1326 1.15817 9.6181 1.71454 8.27871C2.2709 6.91871 3.03333 5.75446 4.00181 4.78598C4.9703 3.8175 6.06242 3.07568 7.27817 2.56053C8.51454 2.04537 9.80242 1.7878 11.1418 1.7878C12.6254 1.7878 13.9133 2.04537 15.0054 2.56053C16.1182 3.07568 17.0351 3.75568 17.7564 4.60053C18.4982 5.42477 19.0545 6.33144 19.4254 7.32053L18.5909 7.01144V2.22053H20.1982V8.71144L19.2091 8.77325C18.7145 7.63992 18.1067 6.67143 17.3854 5.8678C16.6642 5.04356 15.8091 4.41507 14.82 3.98234C13.8309 3.52901 12.6564 3.30234 11.2964 3.30234C10.1424 3.30234 9.03999 3.52901 7.98908 3.98234C6.95878 4.41507 6.04181 5.05386 5.23817 5.89871C4.43454 6.72295 3.80605 7.72234 3.35272 8.89689C2.89939 10.0508 2.67272 11.3593 2.67272 12.8223C2.67272 14.2442 2.88908 15.5423 3.32181 16.7169C3.77514 17.8708 4.39333 18.8702 5.17636 19.7151C5.95939 20.5393 6.87636 21.1781 7.92726 21.6314C8.97817 22.0848 10.1218 22.3114 11.3582 22.3114C12.3267 22.3114 13.2024 22.1981 13.9854 21.9714C14.7685 21.7448 15.4691 21.4357 16.0873 21.0442C16.7261 20.6526 17.2927 20.2199 17.7873 19.746C18.2818 19.272 18.6939 18.7878 19.0236 18.2933L20.1982 19.2823C19.8067 19.8387 19.343 20.3848 18.8073 20.9205C18.2715 21.4563 17.643 21.9508 16.9218 22.4042C16.2006 22.8369 15.3764 23.1872 14.4491 23.4551C13.5218 23.723 12.4915 23.8569 11.3582 23.8569Z" fill="black"/>
<path d="M16.9062 8.8368L16.8263 14.9159C17.4256 14.9425 18.0248 14.9559 18.6241 14.9559C18.8238 14.9559 19.0746 14.9559 19.3765 14.9559C19.6783 14.9514 19.9957 14.947 20.3286 14.9425C20.6615 14.9337 20.9944 14.9248 21.3274 14.9159C21.6603 14.907 21.9599 14.8937 22.2262 14.876L22.3061 8.56381L24.2704 8.78353L23.5513 18.5048H22.1863L22.2129 15.5884C21.9244 15.5618 21.6115 15.5418 21.2741 15.5285C20.9367 15.5107 20.6038 15.4974 20.2753 15.4885C19.9469 15.4796 19.6339 15.473 19.3365 15.4685C19.0391 15.4641 18.7839 15.4619 18.5708 15.4619C18.2778 15.4619 17.9849 15.4663 17.6919 15.4752C17.3989 15.4796 17.106 15.493 16.813 15.5152L16.773 18.7378L15.3148 18.7911L14.9819 9.05653L16.9062 8.8368ZM34.3682 12.166C34.3682 12.5389 34.2839 12.8718 34.1152 13.1647C33.9509 13.4577 33.729 13.7152 33.4493 13.9371C33.1741 14.1591 32.8545 14.3477 32.4905 14.5031C32.131 14.6584 31.7581 14.7827 31.3719 14.876L34.3682 18.1519L32.2841 18.7778L30.0735 15.109C29.7451 15.1356 29.441 15.1489 29.1613 15.1489C28.8995 15.1489 28.6398 15.1445 28.3823 15.1356C28.1249 15.1268 27.8652 15.1046 27.6033 15.069L27.5767 18.598L25.8588 18.6113C25.8677 17.0488 25.8566 15.473 25.8255 13.8839C25.7944 12.2903 25.7656 10.7122 25.7389 9.14974C26.0541 9.08316 26.387 9.02989 26.7377 8.98994C27.0884 8.94999 27.4435 8.91892 27.803 8.89673C28.1626 8.87453 28.5199 8.859 28.875 8.85012C29.2302 8.84124 29.5697 8.8368 29.8938 8.8368C30.2489 8.8368 30.6062 8.86565 30.9658 8.92336C31.3253 8.98107 31.6693 9.06984 31.9978 9.18969C32.3307 9.30955 32.6415 9.46047 32.93 9.64246C33.2185 9.82446 33.4693 10.0397 33.6824 10.2883C33.8955 10.5325 34.0619 10.8121 34.1818 11.1273C34.3061 11.438 34.3682 11.7842 34.3682 12.166ZM28.875 9.50264C28.6487 9.50264 28.42 9.50708 28.1892 9.51596C27.9628 9.52483 27.7365 9.54259 27.5101 9.56922L27.6166 14.4165C27.8252 14.4432 28.0361 14.4587 28.2491 14.4631C28.4622 14.4676 28.6797 14.4698 28.9017 14.4698C29.1991 14.4698 29.4943 14.4476 29.7872 14.4032C30.0846 14.3588 30.3665 14.2922 30.6328 14.2035C30.8992 14.1102 31.1455 13.997 31.3719 13.8639C31.5983 13.7263 31.7936 13.5687 31.9579 13.3911C32.1265 13.2091 32.2575 13.0049 32.3507 12.7786C32.4439 12.5522 32.4905 12.3058 32.4905 12.0395C32.4905 11.7288 32.4395 11.4513 32.3374 11.2072C32.2353 10.9586 32.0955 10.7411 31.9179 10.5547C31.7448 10.3638 31.5406 10.204 31.3053 10.0753C31.0701 9.94209 30.8193 9.83334 30.5529 9.749C30.2866 9.66466 30.0092 9.60251 29.7207 9.56256C29.4366 9.52261 29.1547 9.50264 28.875 9.50264ZM37.4747 8.87675L37.1352 18.5181L35.7902 18.5447L35.5172 8.9966L37.4747 8.87675ZM42.9983 18.9975C42.4789 18.9975 41.9928 18.9331 41.5401 18.8044C41.0873 18.6757 40.6745 18.4826 40.3016 18.2251C39.9287 17.9677 39.598 17.6458 39.3095 17.2597C39.0254 16.8735 38.7924 16.4251 38.6104 15.9147L40.9142 15.7881C40.9497 16.6049 41.1827 17.2286 41.6133 17.6592C42.0439 18.0853 42.652 18.2984 43.4377 18.2984C43.744 18.2984 44.0503 18.2673 44.3566 18.2051C44.6629 18.143 44.9358 18.0387 45.1756 17.8922C45.4197 17.7413 45.6172 17.5437 45.7681 17.2996C45.9235 17.0555 46.0012 16.7514 46.0012 16.3874C46.0012 16.1344 45.9524 15.9191 45.8547 15.7415C45.7571 15.5595 45.6261 15.4086 45.4619 15.2888C45.3021 15.1689 45.1156 15.0735 44.9026 15.0025C44.6939 14.927 44.4764 14.8693 44.25 14.8293C44.0281 14.785 43.8061 14.7517 43.5842 14.7295C43.3623 14.7073 43.1581 14.6873 42.9716 14.6695C42.6698 14.6473 42.3546 14.6118 42.0261 14.563C41.6977 14.5142 41.3736 14.4454 41.054 14.3566C40.7389 14.2678 40.437 14.1546 40.1485 14.017C39.8599 13.8794 39.6069 13.7063 39.3894 13.4977C39.1719 13.2846 38.9988 13.0338 38.8701 12.7453C38.7413 12.4567 38.677 12.1172 38.677 11.7265C38.677 11.3537 38.7391 11.0163 38.8634 10.7145C38.9877 10.4126 39.1564 10.1463 39.3694 9.91546C39.587 9.6802 39.8355 9.47822 40.1152 9.30955C40.3993 9.13643 40.6989 8.9966 41.0141 8.89007C41.3337 8.77909 41.6599 8.69697 41.9928 8.64371C42.3258 8.59044 42.6476 8.56381 42.9583 8.56381C43.2735 8.56381 43.6042 8.58378 43.9504 8.62373C44.3011 8.66368 44.6495 8.73027 44.9958 8.82348C45.342 8.9167 45.6749 9.03877 45.9945 9.18969C46.3186 9.33618 46.6093 9.51818 46.8668 9.73568C47.1287 9.95319 47.3462 10.2084 47.5193 10.5014C47.6924 10.7899 47.8056 11.1206 47.8589 11.4935L45.635 11.9463C45.6616 11.782 45.6749 11.6133 45.6749 11.4402C45.6749 11.0363 45.5928 10.6945 45.4286 10.4148C45.2643 10.1352 45.0468 9.91102 44.776 9.74234C44.5053 9.56922 44.199 9.44493 43.8572 9.36947C43.5154 9.29401 43.1669 9.25628 42.8118 9.25628C42.4967 9.25628 42.1837 9.29845 41.873 9.38279C41.5667 9.46269 41.2893 9.58476 41.0407 9.749C40.7966 9.91324 40.599 10.1196 40.4481 10.3682C40.2972 10.6168 40.2217 10.9098 40.2217 11.2471C40.2217 11.478 40.2839 11.6777 40.4082 11.8464C40.5324 12.0151 40.6945 12.1616 40.8942 12.2858C41.0984 12.4057 41.327 12.5056 41.58 12.5855C41.833 12.6654 42.0861 12.732 42.3391 12.7852C42.5965 12.834 42.8407 12.874 43.0715 12.9051C43.3023 12.9317 43.4976 12.9517 43.6574 12.965C43.9415 12.9961 44.2389 13.0405 44.5497 13.0982C44.8604 13.1514 45.1667 13.2269 45.4685 13.3245C45.7704 13.4222 46.0589 13.5443 46.3341 13.6908C46.6093 13.8372 46.849 14.0148 47.0532 14.2234C47.2618 14.4321 47.4261 14.6762 47.5459 14.9559C47.6702 15.2355 47.7324 15.5551 47.7324 15.9147C47.7324 16.2964 47.6569 16.6382 47.506 16.94C47.3551 17.2375 47.1531 17.5016 46.9001 17.7324C46.6515 17.9588 46.3652 18.1541 46.0411 18.3183C45.7171 18.4781 45.3797 18.6069 45.0291 18.7045C44.6784 18.8066 44.3277 18.8799 43.977 18.9242C43.6264 18.9731 43.3001 18.9975 42.9983 18.9975Z" fill="black"/>
<path d="M51.8974 13.6767C51.4713 13.6767 51.0984 13.6131 50.7788 13.4859C50.4622 13.3616 50.1944 13.1781 49.9754 12.9354C49.7564 12.6928 49.5847 12.3954 49.4605 12.0432C49.3391 11.6881 49.2607 11.2812 49.2252 10.8225L50.6856 10.8758C50.6619 10.9971 50.6442 11.117 50.6323 11.2353C50.6205 11.3507 50.6146 11.4706 50.6146 11.5949C50.6146 11.8849 50.6619 12.1364 50.7566 12.3495C50.8513 12.5596 50.9726 12.7327 51.1206 12.8688C51.2715 13.005 51.4387 13.1056 51.6222 13.1707C51.8086 13.2358 51.9936 13.2683 52.1771 13.2683C52.5144 13.2683 52.8044 13.184 53.0471 13.0153C53.2927 12.8437 53.494 12.6143 53.6508 12.3273C53.8106 12.0402 53.9275 11.7073 54.0015 11.3285C54.0755 10.9468 54.1124 10.5473 54.1124 10.13C54.1124 9.89625 54.0932 9.63879 54.0547 9.35766C54.0192 9.07357 53.9704 8.788 53.9083 8.50095C53.8491 8.21094 53.778 7.93129 53.6952 7.66199C53.6153 7.38974 53.5309 7.14856 53.4422 6.93845L54.9248 6.74757C55.0431 7.18851 55.1304 7.63536 55.1867 8.08813C55.2429 8.53794 55.271 8.98923 55.271 9.442C55.271 9.84742 55.2458 10.2336 55.1955 10.6006C55.1482 10.9675 55.0698 11.3078 54.9603 11.6215C54.8537 11.9352 54.7132 12.2193 54.5386 12.4738C54.364 12.7253 54.1509 12.9413 53.8994 13.1219C53.6508 13.2994 53.3608 13.4355 53.0293 13.5302C52.6979 13.6279 52.3206 13.6767 51.8974 13.6767ZM62.1938 6.99615C62.0073 7.63536 61.8105 8.23609 61.6034 8.79835C61.3962 9.35766 61.1906 9.87257 60.9864 10.3431C60.7822 10.8136 60.5869 11.2353 60.4004 11.6082C60.217 11.9781 60.0527 12.2933 59.9077 12.5537C59.7657 12.8111 59.6517 13.0079 59.5659 13.1441C59.4831 13.2802 59.4402 13.3482 59.4372 13.3482L58.5006 13.4148C58.1366 12.891 57.7756 12.3007 57.4175 11.6437C57.2666 11.3655 57.1082 11.0592 56.9425 10.7248C56.7768 10.3904 56.6126 10.0324 56.4498 9.65063C56.29 9.26592 56.1332 8.8605 55.9793 8.43436C55.8254 8.00823 55.6848 7.56433 55.5576 7.10269L57.0934 6.78752C57.1438 7.24029 57.2118 7.66495 57.2976 8.06149C57.3864 8.45508 57.4855 8.82795 57.595 9.1801C57.7045 9.5293 57.8229 9.86074 57.9502 10.1744C58.0774 10.4881 58.2076 10.7914 58.3408 11.0844C58.4739 11.3744 58.6071 11.6585 58.7403 11.9367C58.8735 12.2119 59.0007 12.4856 59.122 12.7579C59.3972 12.2341 59.6295 11.7103 59.8189 11.1865C60.0113 10.6627 60.1741 10.1478 60.3072 9.64175C60.4433 9.13571 60.5558 8.64299 60.6446 8.16359C60.7363 7.68123 60.8162 7.22254 60.8843 6.78752L62.1938 6.99615Z" fill="black"/>
<path d="M56.0212 19.0479C56.0212 19.2847 55.9857 19.4992 55.9146 19.6916C55.8466 19.881 55.7519 20.0511 55.6306 20.2021C55.5092 20.35 55.3657 20.4787 55.2 20.5882C55.0343 20.6948 54.8552 20.7821 54.6629 20.8501C54.4735 20.9212 54.2752 20.9729 54.0681 21.0055C53.8609 21.041 53.6552 21.0588 53.451 21.0588C53.2439 21.0588 53.0367 21.041 52.8296 21.0055C52.6224 20.9729 52.4227 20.9212 52.2303 20.8501C52.0409 20.7821 51.8634 20.6948 51.6977 20.5882C51.5349 20.4787 51.3914 20.35 51.2671 20.2021C51.1458 20.0511 51.0496 19.881 50.9786 19.6916C50.9105 19.4992 50.8765 19.2847 50.8765 19.0479C50.8765 18.823 50.9149 18.6188 50.9919 18.4354C51.0718 18.2489 51.1783 18.0832 51.3115 17.9382C51.4476 17.7932 51.6059 17.6689 51.7864 17.5653C51.967 17.4588 52.1578 17.3745 52.3591 17.3123C52.2081 17.2798 52.0661 17.2191 51.9329 17.1303C51.8027 17.0386 51.6888 16.9291 51.5911 16.8018C51.4935 16.6746 51.4165 16.5355 51.3603 16.3846C51.3041 16.2337 51.276 16.0813 51.276 15.9274C51.276 15.6344 51.3411 15.3829 51.4713 15.1728C51.6015 14.9626 51.7702 14.7895 51.9773 14.6534C52.1874 14.5173 52.4212 14.4181 52.6787 14.356C52.9391 14.2909 53.1965 14.2583 53.451 14.2583C53.6227 14.2583 53.7958 14.2717 53.9704 14.2983C54.148 14.3249 54.3166 14.3678 54.4764 14.427C54.6392 14.4832 54.7916 14.5557 54.9336 14.6445C55.0757 14.7333 55.1985 14.8398 55.3021 14.9641C55.4056 15.0855 55.487 15.2275 55.5462 15.3903C55.6084 15.5501 55.6394 15.7291 55.6394 15.9274C55.6394 16.0783 55.6113 16.2248 55.5551 16.3668C55.4989 16.5089 55.4234 16.642 55.3287 16.7663C55.234 16.8877 55.1245 16.9957 55.0002 17.0904C54.8759 17.1851 54.7472 17.259 54.614 17.3123C54.8123 17.3567 54.9958 17.4351 55.1645 17.5476C55.3361 17.6571 55.4855 17.7902 55.6128 17.9471C55.74 18.101 55.8392 18.2726 55.9102 18.462C55.9842 18.6514 56.0212 18.8467 56.0212 19.0479ZM54.4143 15.9007C54.4143 15.7409 54.398 15.5871 54.3655 15.4391C54.3359 15.2911 54.2841 15.1609 54.2101 15.0485C54.1361 14.9331 54.037 14.8428 53.9127 14.7777C53.7884 14.7096 53.6345 14.6756 53.451 14.6756C53.2557 14.6756 53.0959 14.7081 52.9716 14.7733C52.8474 14.8354 52.7482 14.9227 52.6742 15.0351C52.6032 15.1446 52.5544 15.2748 52.5277 15.4258C52.5011 15.5737 52.4878 15.7321 52.4878 15.9007C52.4878 16.0635 52.5041 16.2159 52.5366 16.3579C52.5692 16.5 52.6224 16.6243 52.6964 16.7308C52.7704 16.8373 52.8681 16.9217 52.9894 16.9838C53.1137 17.046 53.2676 17.0771 53.451 17.0771C53.6345 17.0771 53.7884 17.0475 53.9127 16.9883C54.037 16.9261 54.1361 16.8418 54.2101 16.7353C54.2841 16.6287 54.3359 16.5044 54.3655 16.3624C54.398 16.2203 54.4143 16.0665 54.4143 15.9007ZM54.796 19.0568C54.796 18.8585 54.765 18.6691 54.7028 18.4886C54.6436 18.3081 54.5563 18.1498 54.4409 18.0137C54.3255 17.8746 54.1835 17.7651 54.0148 17.6852C53.8491 17.6053 53.6612 17.5653 53.451 17.5653C53.235 17.5653 53.0427 17.6053 52.874 17.6852C52.7083 17.7651 52.5677 17.8731 52.4523 18.0092C52.3398 18.1454 52.254 18.3037 52.1948 18.4842C52.1356 18.6647 52.1061 18.8556 52.1061 19.0568C52.1061 19.2728 52.1312 19.4755 52.1815 19.6649C52.2348 19.8543 52.3162 20.0186 52.4257 20.1577C52.5351 20.2967 52.6742 20.4077 52.8429 20.4906C53.0146 20.5705 53.2173 20.6104 53.451 20.6104C53.6819 20.6104 53.8816 20.569 54.0503 20.4861C54.219 20.4033 54.3581 20.2908 54.4676 20.1488C54.58 20.0067 54.6629 19.8425 54.7161 19.6561C54.7694 19.4667 54.796 19.2669 54.796 19.0568ZM60.9154 14.4093C60.5958 14.9271 60.3087 15.442 60.0542 15.954C59.7997 16.463 59.5837 16.9824 59.4061 17.5121C59.2286 18.0388 59.0895 18.5818 58.9889 19.1411C58.8912 19.7005 58.8365 20.2879 58.8246 20.9034L57.4352 20.8013C57.5033 20.4639 57.5773 20.131 57.6572 19.8025C57.74 19.4711 57.8377 19.1441 57.9502 18.8215C58.0715 18.4694 58.2091 18.1232 58.363 17.7828C58.5198 17.4425 58.6855 17.1066 58.8601 16.7752C59.0377 16.4438 59.2226 16.1182 59.415 15.7986C59.6074 15.4761 59.8012 15.1565 59.9965 14.8398C59.3543 14.8458 58.7595 14.9523 58.2121 15.1594C57.6646 15.3636 57.1467 15.6714 56.6584 16.0827L56.4232 14.4315L60.9154 14.4093Z" fill="black"/>
</svg>
