<svg width="72" height="26" viewBox="0 0 72 26" fill="none" xmlns="http://www.w3.org/2000/svg">
<rect width="72" height="26" fill="white"/>
<path d="M13.1477 25.1633C11.5611 25.1633 10.0651 24.88 8.65972 24.3133C7.27706 23.7466 6.05306 22.9306 4.98772 21.8653C3.94506 20.7773 3.11772 19.4966 2.50572 18.0233C1.91639 16.5273 1.62172 14.8613 1.62172 13.0253C1.62172 11.1666 1.92772 9.50062 2.53972 8.02729C3.15172 6.53129 3.99039 5.25062 5.05572 4.18528C6.12106 3.11995 7.32239 2.30395 8.65972 1.73729C10.0197 1.17062 11.4364 0.887285 12.9097 0.887285C14.5417 0.887285 15.9584 1.17062 17.1597 1.73729C18.3837 2.30395 19.3924 3.05195 20.1857 3.98129C21.0017 4.88795 21.6137 5.88529 22.0217 6.97329L21.1037 6.63329V1.36328H22.8717V8.50329L21.7837 8.57129C21.2397 7.32462 20.5711 6.25929 19.7777 5.37529C18.9844 4.46862 18.0437 3.77729 16.9557 3.30129C15.8677 2.80262 14.5757 2.55329 13.0797 2.55329C11.8104 2.55329 10.5977 2.80262 9.44172 3.30129C8.30839 3.77729 7.29972 4.47995 6.41572 5.40929C5.53172 6.31595 4.84039 7.41529 4.34172 8.70729C3.84306 9.97662 3.59372 11.416 3.59372 13.0253C3.59372 14.5893 3.83172 16.0173 4.30772 17.3093C4.80639 18.5786 5.48639 19.678 6.34772 20.6073C7.20906 21.514 8.21772 22.2166 9.37372 22.7153C10.5297 23.214 11.7877 23.4633 13.1477 23.4633C14.2131 23.4633 15.1764 23.3386 16.0377 23.0893C16.8991 22.84 17.6697 22.5 18.3497 22.0693C19.0524 21.6386 19.6757 21.1626 20.2197 20.6413C20.7637 20.12 21.2171 19.5873 21.5797 19.0433L22.8717 20.1313C22.4411 20.7433 21.9311 21.344 21.3417 21.9333C20.7524 22.5226 20.0611 23.0666 19.2677 23.5653C18.4744 24.0413 17.5677 24.4266 16.5477 24.7213C15.5277 25.016 14.3944 25.1633 13.1477 25.1633Z" fill="black"/>
<path d="M18.5968 8.33015L18.5089 15.0172C19.1681 15.0465 19.8273 15.0611 20.4865 15.0611C20.7062 15.0611 20.9821 15.0611 21.3141 15.0611C21.6461 15.0562 21.9953 15.0513 22.3615 15.0465C22.7277 15.0367 23.0939 15.0269 23.4601 15.0172C23.8263 15.0074 24.1559 14.9928 24.4489 14.9732L24.5368 8.02986L26.6974 8.27156L25.9064 18.9649H24.4049L24.4342 15.7569C24.1168 15.7276 23.7726 15.7056 23.4015 15.691C23.0304 15.6715 22.6642 15.6568 22.3029 15.647C21.9415 15.6373 21.5973 15.63 21.2702 15.6251C20.943 15.6202 20.6622 15.6178 20.4279 15.6178C20.1056 15.6178 19.7833 15.6226 19.4611 15.6324C19.1388 15.6373 18.8165 15.6519 18.4943 15.6763L18.4503 19.2213L16.8463 19.2799L16.4801 8.57185L18.5968 8.33015ZM37.805 11.9923C37.805 12.4024 37.7122 12.7686 37.5267 13.0909C37.346 13.4132 37.1019 13.6964 36.7943 13.9405C36.4915 14.1846 36.14 14.3922 35.7396 14.5631C35.3441 14.734 34.9339 14.8707 34.5091 14.9732L37.805 18.5767L35.5125 19.2652L33.0809 15.2296C32.7196 15.2589 32.3851 15.2735 32.0775 15.2735C31.7894 15.2735 31.5038 15.2686 31.2205 15.2589C30.9373 15.2491 30.6517 15.2247 30.3636 15.1856L30.3343 19.0675L28.4447 19.0821C28.4544 17.3634 28.4422 15.63 28.408 13.8819C28.3739 12.129 28.3421 10.3931 28.3128 8.67439C28.6595 8.60115 29.0257 8.54256 29.4115 8.49861C29.7972 8.45467 30.1878 8.42049 30.5833 8.39607C30.9788 8.37166 31.3719 8.35457 31.7625 8.3448C32.1532 8.33504 32.5267 8.33015 32.8831 8.33015C33.2738 8.33015 33.6668 8.36189 34.0623 8.42537C34.4579 8.48885 34.8363 8.5865 35.1976 8.71834C35.5638 8.85017 35.9056 9.01619 36.223 9.21638C36.5404 9.41658 36.8163 9.6534 37.0506 9.92683C37.285 10.1954 37.4681 10.503 37.5999 10.8497C37.7367 11.1915 37.805 11.5723 37.805 11.9923ZM31.7625 9.06258C31.5135 9.06258 31.2621 9.06746 31.0081 9.07722C30.7591 9.08699 30.5101 9.10652 30.2611 9.13582L30.3783 14.4678C30.6078 14.4971 30.8397 14.5142 31.0741 14.5191C31.3084 14.524 31.5477 14.5264 31.7918 14.5264C32.119 14.5264 32.4437 14.502 32.766 14.4532C33.0931 14.4044 33.4032 14.3311 33.6961 14.2335C33.9891 14.1309 34.2601 14.0064 34.5091 13.8599C34.7581 13.7086 34.973 13.5352 35.1537 13.3399C35.3392 13.1397 35.4832 12.9151 35.5858 12.6661C35.6883 12.4171 35.7396 12.1461 35.7396 11.8531C35.7396 11.5113 35.6834 11.2061 35.5711 10.9376C35.4588 10.6641 35.305 10.4249 35.1097 10.2198C34.9193 10.0098 34.6947 9.83406 34.4359 9.69246C34.1771 9.54597 33.9012 9.42635 33.6082 9.33357C33.3153 9.2408 33.0101 9.17244 32.6927 9.12849C32.3802 9.08455 32.0702 9.06258 31.7625 9.06258ZM41.2222 8.3741L40.8487 18.9796L39.3692 19.0089L39.0689 8.50594L41.2222 8.3741ZM47.2981 19.5069C46.7268 19.5069 46.1921 19.4361 45.6941 19.2945C45.196 19.1529 44.7419 18.9405 44.3318 18.6573C43.9216 18.3741 43.5579 18.0201 43.2405 17.5953C42.928 17.1705 42.6716 16.6773 42.4714 16.1158L45.0056 15.9766C45.0447 16.8751 45.301 17.5611 45.7746 18.0347C46.2483 18.5035 46.9172 18.7379 47.7815 18.7379C48.1184 18.7379 48.4553 18.7037 48.7922 18.6353C49.1291 18.567 49.4294 18.4522 49.6931 18.2911C49.9617 18.1251 50.1789 17.9078 50.345 17.6392C50.5159 17.3707 50.6013 17.0362 50.6013 16.6358C50.6013 16.3575 50.5476 16.1207 50.4402 15.9254C50.3328 15.7252 50.1887 15.5592 50.008 15.4273C49.8323 15.2955 49.6272 15.1905 49.3928 15.1124C49.1633 15.0294 48.9241 14.9659 48.675 14.922C48.4309 14.8731 48.1868 14.8365 47.9426 14.8121C47.6985 14.7877 47.4739 14.7657 47.2688 14.7462C46.9368 14.7218 46.5901 14.6827 46.2288 14.629C45.8674 14.5753 45.511 14.4996 45.1594 14.4019C44.8127 14.3043 44.4807 14.1798 44.1633 14.0284C43.8459 13.877 43.5676 13.6866 43.3284 13.4571C43.0891 13.2227 42.8987 12.9469 42.7571 12.6295C42.6155 12.3121 42.5447 11.9386 42.5447 11.5089C42.5447 11.0987 42.613 10.7276 42.7497 10.3956C42.8865 10.0636 43.072 9.77058 43.3064 9.51668C43.5456 9.25789 43.8191 9.03572 44.1267 8.85017C44.4392 8.65974 44.7688 8.50594 45.1155 8.38875C45.467 8.26668 45.8259 8.17635 46.1921 8.11775C46.5583 8.05916 46.9123 8.02986 47.2541 8.02986C47.6008 8.02986 47.9646 8.05183 48.3454 8.09578C48.7312 8.13972 49.1145 8.21297 49.4954 8.31551C49.8762 8.41805 50.2424 8.55232 50.594 8.71834C50.9504 8.87947 51.2703 9.07967 51.5535 9.31892C51.8415 9.55818 52.0808 9.83894 52.2712 10.1612C52.4617 10.4786 52.5862 10.8424 52.6448 11.2525L50.1985 11.7506C50.2278 11.5699 50.2424 11.3844 50.2424 11.1939C50.2424 10.7496 50.1521 10.3736 49.9714 10.066C49.7908 9.75838 49.5515 9.5118 49.2537 9.32625C48.9558 9.13582 48.6189 8.9991 48.2429 8.91609C47.8669 8.83308 47.4836 8.79158 47.093 8.79158C46.7463 8.79158 46.4021 8.83797 46.0603 8.93074C45.7234 9.01863 45.4182 9.15291 45.1448 9.33357C44.8762 9.51424 44.6589 9.74129 44.4929 10.0147C44.3269 10.2882 44.2439 10.6104 44.2439 10.9815C44.2439 11.2354 44.3122 11.4552 44.449 11.6407C44.5857 11.8262 44.7639 11.9874 44.9836 12.1241C45.2082 12.2559 45.4597 12.3658 45.738 12.4537C46.0163 12.5416 46.2947 12.6148 46.573 12.6734C46.8562 12.7271 47.1247 12.7711 47.3787 12.8053C47.6326 12.8345 47.8474 12.8565 48.0232 12.8712C48.3357 12.9053 48.6628 12.9542 49.0046 13.0177C49.3464 13.0762 49.6833 13.1593 50.0154 13.2667C50.3474 13.3741 50.6648 13.5084 50.9675 13.6695C51.2703 13.8306 51.5339 14.026 51.7585 14.2554C51.988 14.4849 52.1687 14.7535 52.3005 15.0611C52.4372 15.3687 52.5056 15.7203 52.5056 16.1158C52.5056 16.5357 52.4226 16.9117 52.2566 17.2437C52.0906 17.5709 51.8684 17.8614 51.5901 18.1153C51.3166 18.3643 51.0017 18.5792 50.6453 18.7598C50.2888 18.9356 49.9177 19.0772 49.532 19.1846C49.1462 19.297 48.7605 19.3775 48.3747 19.4263C47.989 19.4801 47.6301 19.5069 47.2981 19.5069Z" fill="black"/>
<path d="M57.0872 12.793C56.6184 12.793 56.2083 12.723 55.8567 12.583C55.5084 12.4463 55.2138 12.2445 54.9729 11.9775C54.732 11.7106 54.5432 11.3835 54.4065 10.9961C54.273 10.6055 54.1868 10.1579 54.1477 9.65332L55.7542 9.71191C55.7281 9.84538 55.7086 9.97721 55.6956 10.1074C55.6825 10.2344 55.676 10.3662 55.676 10.5029C55.676 10.8219 55.7281 11.0986 55.8323 11.333C55.9364 11.5641 56.0699 11.7546 56.2327 11.9043C56.3987 12.054 56.5826 12.1647 56.7844 12.2363C56.9895 12.3079 57.193 12.3438 57.3948 12.3438C57.7659 12.3438 58.0849 12.251 58.3518 12.0654C58.622 11.8766 58.8433 11.6243 59.0159 11.3086C59.1917 10.9928 59.3202 10.6266 59.4016 10.21C59.483 9.79004 59.5237 9.35059 59.5237 8.8916C59.5237 8.63444 59.5025 8.35124 59.4602 8.04199C59.4211 7.72949 59.3674 7.41536 59.2991 7.09961C59.234 6.7806 59.1558 6.47298 59.0647 6.17676C58.9768 5.87728 58.884 5.61198 58.7864 5.38086L60.4172 5.1709C60.5475 5.65592 60.6435 6.14746 60.7053 6.64551C60.7672 7.1403 60.7981 7.63672 60.7981 8.13477C60.7981 8.58073 60.7704 9.00553 60.7151 9.40918C60.663 9.81283 60.5767 10.1872 60.4563 10.5322C60.3391 10.8773 60.1845 11.1898 59.9924 11.4697C59.8004 11.7464 59.566 11.984 59.2893 12.1826C59.0159 12.3779 58.6969 12.5277 58.3323 12.6318C57.9677 12.7393 57.5527 12.793 57.0872 12.793ZM68.4131 5.44434C68.2081 6.14746 67.9916 6.80827 67.7637 7.42676C67.5359 8.04199 67.3096 8.6084 67.085 9.12598C66.8604 9.64355 66.6456 10.1074 66.4405 10.5176C66.2387 10.9245 66.058 11.2712 65.8985 11.5576C65.7422 11.8408 65.6169 12.0573 65.5225 12.207C65.4314 12.3568 65.3842 12.4316 65.3809 12.4316L64.3506 12.5049C63.9503 11.9287 63.5531 11.2793 63.1592 10.5566C62.9932 10.2507 62.8191 9.91374 62.6368 9.5459C62.4545 9.17806 62.2738 8.78418 62.0948 8.36426C61.919 7.94108 61.7465 7.49512 61.5772 7.02637C61.4079 6.55762 61.2533 6.06934 61.1133 5.56152L62.8028 5.21484C62.8581 5.71289 62.933 6.18001 63.0274 6.61621C63.1251 7.04915 63.2341 7.45931 63.3545 7.84668C63.475 8.23079 63.6052 8.59538 63.7452 8.94043C63.8851 9.28548 64.0284 9.61914 64.1749 9.94141C64.3213 10.2604 64.4678 10.5729 64.6143 10.8789C64.7608 11.1816 64.9008 11.4827 65.0342 11.7822C65.337 11.2061 65.5925 10.6299 65.8008 10.0537C66.0124 9.47754 66.1915 8.91113 66.3379 8.35449C66.4877 7.79785 66.6114 7.25586 66.709 6.72852C66.81 6.19792 66.8978 5.69336 66.9727 5.21484L68.4131 5.44434Z" fill="black"/>
<path d="M61.6233 19.2235C61.6233 19.4839 61.5842 19.7199 61.5061 19.9315C61.4312 20.1398 61.3271 20.327 61.1936 20.493C61.0601 20.6558 60.9023 20.7974 60.72 20.9178C60.5377 21.035 60.3407 21.131 60.1292 21.2059C59.9208 21.284 59.7027 21.341 59.4749 21.3768C59.247 21.4159 59.0208 21.4354 58.7961 21.4354C58.5683 21.4354 58.3404 21.4159 58.1126 21.3768C57.8847 21.341 57.665 21.284 57.4534 21.2059C57.245 21.131 57.0497 21.035 56.8674 20.9178C56.6884 20.7974 56.5305 20.6558 56.3938 20.493C56.2603 20.327 56.1545 20.1398 56.0764 19.9315C56.0016 19.7199 55.9641 19.4839 55.9641 19.2235C55.9641 18.9761 56.0064 18.7515 56.0911 18.5497C56.179 18.3446 56.2961 18.1623 56.4426 18.0028C56.5924 17.8433 56.7665 17.7066 56.9651 17.5926C57.1637 17.4754 57.3736 17.3827 57.595 17.3143C57.429 17.2785 57.2727 17.2118 57.1262 17.1141C56.983 17.0132 56.8577 16.8928 56.7503 16.7528C56.6428 16.6128 56.5582 16.4598 56.4963 16.2938C56.4345 16.1278 56.4036 15.9601 56.4036 15.7909C56.4036 15.4686 56.4752 15.1919 56.6184 14.9608C56.7616 14.7297 56.9472 14.5392 57.1751 14.3895C57.4062 14.2398 57.6633 14.1307 57.9465 14.0623C58.233 13.9907 58.5162 13.9549 58.7961 13.9549C58.985 13.9549 59.1754 13.9696 59.3674 13.9989C59.5628 14.0282 59.7483 14.0754 59.9241 14.1405C60.1031 14.2023 60.2708 14.2821 60.427 14.3797C60.5833 14.4774 60.7183 14.5946 60.8323 14.7313C60.9462 14.8648 61.0357 15.021 61.1008 15.2C61.1692 15.3758 61.2034 15.5728 61.2034 15.7909C61.2034 15.9569 61.1725 16.118 61.1106 16.2743C61.0488 16.4305 60.9657 16.577 60.8616 16.7137C60.7574 16.8472 60.637 16.966 60.5003 17.0702C60.3635 17.1743 60.2219 17.2557 60.0754 17.3143C60.2935 17.3631 60.4954 17.4494 60.6809 17.5731C60.8697 17.6935 61.0341 17.84 61.1741 18.0125C61.3141 18.1818 61.4231 18.3706 61.5012 18.5789C61.5826 18.7873 61.6233 19.0021 61.6233 19.2235ZM59.8557 15.7616C59.8557 15.5858 59.8378 15.4165 59.802 15.2538C59.7695 15.091 59.7125 14.9478 59.6311 14.8241C59.5497 14.6971 59.4407 14.5978 59.304 14.5262C59.1672 14.4513 58.998 14.4139 58.7961 14.4139C58.5813 14.4139 58.4055 14.4497 58.2688 14.5213C58.1321 14.5897 58.023 14.6857 57.9417 14.8094C57.8635 14.9299 57.8098 15.0731 57.7805 15.2391C57.7512 15.4019 57.7366 15.576 57.7366 15.7616C57.7366 15.9406 57.7545 16.1082 57.7903 16.2645C57.8261 16.4207 57.8847 16.5575 57.9661 16.6747C58.0475 16.7918 58.1549 16.8846 58.2883 16.953C58.4251 17.0213 58.5943 17.0555 58.7961 17.0555C58.998 17.0555 59.1672 17.023 59.304 16.9579C59.4407 16.8895 59.5497 16.7967 59.6311 16.6795C59.7125 16.5623 59.7695 16.4256 59.802 16.2694C59.8378 16.1131 59.8557 15.9439 59.8557 15.7616ZM60.2756 19.2332C60.2756 19.0151 60.2415 18.8068 60.1731 18.6082C60.108 18.4097 60.012 18.2355 59.885 18.0858C59.7581 17.9328 59.6018 17.8123 59.4163 17.7245C59.234 17.6366 59.0273 17.5926 58.7961 17.5926C58.5585 17.5926 58.3469 17.6366 58.1614 17.7245C57.9791 17.8123 57.8245 17.9312 57.6975 18.0809C57.5738 18.2306 57.4794 18.4048 57.4143 18.6034C57.3492 18.8019 57.3167 19.0119 57.3167 19.2332C57.3167 19.4709 57.3443 19.6939 57.3997 19.9022C57.4583 20.1105 57.5478 20.2912 57.6682 20.4442C57.7887 20.5972 57.9417 20.7192 58.1272 20.8104C58.316 20.8983 58.539 20.9422 58.7961 20.9422C59.0501 20.9422 59.2698 20.8967 59.4553 20.8055C59.6409 20.7144 59.7939 20.5907 59.9143 20.4344C60.038 20.2782 60.1292 20.0975 60.1878 19.8924C60.2463 19.6841 60.2756 19.4644 60.2756 19.2332ZM67.0069 14.1209C66.6553 14.6906 66.3396 15.257 66.0596 15.8202C65.7797 16.3801 65.542 16.9513 65.3467 17.534C65.1514 18.1135 64.9984 18.7108 64.8878 19.326C64.7803 19.9413 64.7201 20.5874 64.7071 21.2645L63.1788 21.1522C63.2536 20.7811 63.335 20.4149 63.4229 20.0536C63.5141 19.689 63.6215 19.3293 63.7452 18.9745C63.8786 18.5871 64.03 18.2062 64.1993 17.8319C64.3718 17.4575 64.5541 17.0881 64.7461 16.7235C64.9415 16.3589 65.1449 16.0008 65.3565 15.6493C65.5681 15.2944 65.7813 14.9429 65.9961 14.5946C65.2898 14.6011 64.6355 14.7183 64.0333 14.9461C63.431 15.1707 62.8614 15.5093 62.3243 15.9618L62.0655 14.1454L67.0069 14.1209Z" fill="black"/>
</svg>
