<svg width="49" height="49" viewBox="0 0 49 49" fill="none" xmlns="http://www.w3.org/2000/svg">
<path d="M38.2432 0.711548H10.2432C4.72116 0.711548 0.243164 5.18955 0.243164 10.7115V38.7115C0.243164 44.2335 4.72116 48.7115 10.2432 48.7115H38.2432C43.7672 48.7115 48.2432 44.2335 48.2432 38.7115V10.7115C48.2432 5.18955 43.7672 0.711548 38.2432 0.711548ZM16.2432 38.7115H10.2432V16.7115H16.2432V38.7115ZM13.2432 14.1755C11.3112 14.1755 9.74316 12.5955 9.74316 10.6475C9.74316 8.69955 11.3112 7.11955 13.2432 7.11955C15.1752 7.11955 16.7432 8.69955 16.7432 10.6475C16.7432 12.5955 15.1772 14.1755 13.2432 14.1755ZM40.2432 38.7115H34.2432V27.5035C34.2432 20.7675 26.2432 21.2775 26.2432 27.5035V38.7115H20.2432V16.7115H26.2432V20.2415C29.0352 15.0695 40.2432 14.6875 40.2432 25.1935V38.7115Z" fill="#1E1E1E"/>
</svg>
